<svg xmlns="http://www.w3.org/2000/svg" width="49.541" height="49.541" viewBox="0 0 49.541 49.541">
  <path id="Path_15" data-name="Path 15" d="M48.931,117.645A24.77,24.77,0,1,1,73.72,92.861,24.732,24.732,0,0,1,48.931,117.645ZM43.38,92.874c0,2.381-.017,4.763.006,7.144.016,1.653.7,2.049,2.11,1.241q6.191-3.551,12.369-7.125c1.478-.856,1.478-1.663,0-2.519Q51.688,88.038,45.5,84.489c-1.416-.813-2.094-.421-2.11,1.241C43.363,88.111,43.38,90.493,43.38,92.874Z" transform="translate(-24.179 -68.105)"/>
</svg>
